<svg width="27" height="18" fill="none" xmlns="http://www.w3.org/2000/svg"><path d="M25.89 14a30.072 30.072 0 0 0-4.13-5.15.2.2 0 0 1 0-.25 40.658 40.658 0 0 0 3.55-5.81 1.9 1.9 0 0 0-.08-1.86A1.81 1.81 0 0 0 23.65 0h-3a2 2 0 0 0-1.79 1.19 35.005 35.005 0 0 1-3.12 5.51V1.8a1.79 1.79 0 0 0-1.8-1.8H9.56a1.4 1.4 0 0 0-1.12 2.21l.4.56c.214.308.33.675.33 1.05v3.84a26.11 26.11 0 0 1-3.12-6.31A2 2 0 0 0 4.16 0H1.71A1.73 1.73 0 0 0 .05 2.14c1.35 5.73 4.18 10.48 7.77 13a1 1 0 0 0 1.16-1.63C5.84 11.31 3.34 7.12 2.07 2h2.1a26.12 26.12 0 0 0 4.1 7.75 1.6 1.6 0 0 0 1.8.52 1.64 1.64 0 0 0 1.1-1.57V3.82A3.78 3.78 0 0 0 10.71 2h3v5.43A1.77 1.77 0 0 0 15 9.15a1.74 1.74 0 0 0 2-.69A36.869 36.869 0 0 0 20.62 2h2.8a39.8 39.8 0 0 1-3.29 5.37 2.17 2.17 0 0 0 .2 2.83 32.077 32.077 0 0 1 3.92 4.8H20.9a14 14 0 0 0-4.07-4.31 1.64 1.64 0 0 0-1.73-.13 1.691 1.691 0 0 0-.92 1.52v2.38a.53.53 0 0 1-.5.55h-.86a1 1 0 0 0 0 2h.86a2.52 2.52 0 0 0 2.5-2.55v-1.77a11.78 11.78 0 0 1 3 3.32 2 2 0 0 0 1.69 1h3.38a1.92 1.92 0 0 0 1.69-1 2 2 0 0 0-.05-2.01Z" fill="#fff"/></svg>